# xmcd
#
# Track frame offsets:
# 150
# 23271
# 48171
# 68040
# 89870
# 93540
# 115074
# 137501
# 156543
# 184507
# 207454
# 230994
# 233718
# 252405
# 282675
#
# Disc length: 4001 seconds
#
#
# Revision: 9
# Processed by: cddbd v1.5.1PL0 Copyright (c) Steve Scherf et al.
# Submitted via: FreeRIP 2.931 
#
DISCID=d90f9f0f
DTITLE=PUR - Mächtig Viel Theater
DYEAR=1998
DGENRE=Pop
TTITLE0=Wenn Du da bist
TTITLE1=Treib mich weiter
TTITLE2=Mach es nochmal
TTITLE3=Kinder sind tabu
TTITLE4=Merlin's Pummelflug (Instrumental)
TTITLE5=K?nigin
TTITLE6=Allein vor dem Spiegel
TTITLE7=Endlich ich
TTITLE8=Gib sie her
TTITLE9=Kleiner Prinz
TTITLE10=M?chtig viel Theater
TTITLE11=Kowalski 6
TTITLE12=Der Dumme
TTITLE13=Ich will raus hier
TTITLE14=Geweint vor Gl?ck (Orchesterversion)
EXTD=
EXTT0=
EXTT1=
EXTT2=
EXTT3=
EXTT4=
EXTT5=
EXTT6=
EXTT7=
EXTT8=
EXTT9=
EXTT10=
EXTT11=
EXTT12=
EXTT13=
EXTT14=
PLAYORDER=
